<svg xmlns="http://www.w3.org/2000/svg" viewBox="0 0 64 64" fill="none">
  <defs>
    <linearGradient id="g" x1="0%" y1="0%" x2="100%" y2="100%">
      <stop offset="0%" stop-color="#3b82f6"/>
      <stop offset="100%" stop-color="#8b5cf6"/>
    </linearGradient>
  </defs>
  <rect width="64" height="64" rx="14" fill="url(#g)"/>
  <path d="M14 20C14 18.895 14.895 18 16 18H30C31.105 18 32 18.895 32 20V21H14V20Z" fill="white"/>
  <rect x="14" y="21" width="18" height="26" rx="1" fill="white" fill-opacity="0.9"/>
  <rect x="32" y="21" width="18" height="26" rx="1" fill="white" fill-opacity="0.7"/>
  <path d="M32 20C32 18.895 32.895 18 34 18H48C49.105 18 50 18.895 50 20V21H32V20Z" fill="white" fill-opacity="0.7"/>
  <rect x="17" y="25" width="10" height="2" rx="1" fill="url(#g)"/>
  <rect x="17" y="30" width="12" height="2" rx="1" fill="url(#g)"/>
  <rect x="17" y="35" width="8" height="2" rx="1" fill="url(#g)"/>
  <path d="M32 21V47" stroke="white" stroke-width="1" stroke-opacity="0.5"/>
</svg>
